<svg xmlns="http://www.w3.org/2000/svg" viewBox="0 0 360 360" fill="none" shape-rendering="auto"><metadata xmlns:rdf="http://www.w3.org/1999/02/22-rdf-syntax-ns#" xmlns:xsi="http://www.w3.org/2001/XMLSchema-instance" xmlns:dc="http://purl.org/dc/elements/1.1/" xmlns:dcterms="http://purl.org/dc/terms/"><rdf:RDF><rdf:Description><dc:title>Avatar Illustration System</dc:title><dc:creator>Micah Lanier</dc:creator><dc:source xsi:type="dcterms:URI">https://www.figma.com/community/file/829741575478342595</dc:source><dcterms:license xsi:type="dcterms:URI">https://creativecommons.org/licenses/by/4.0/</dcterms:license><dc:rights>Remix of „Avatar Illustration System” (https://www.figma.com/community/file/829741575478342595) by „Micah Lanier”, licensed under „CC BY 4.0” (https://creativecommons.org/licenses/by/4.0/)</dc:rights></rdf:Description></rdf:RDF></metadata><mask id="viewboxMask"><rect width="360" height="360" rx="0" ry="0" x="0" y="0" fill="#fff" /></mask><g mask="url(#viewboxMask)"><rect fill="#0ea5e9" width="360" height="360" x="0" y="0" /><g transform="translate(80 23)"><path d="M154 319.5c-14.4-20-25.67-58.67-27-78L58.5 212 30 319.5h124Z" fill="#77311d" stroke="#000" stroke-width="4"/><path d="M130.37 263.69c-2.1.2-4.22.31-6.37.31-30.78 0-56.05-21.57-58.76-49.1L127 241.5c.38 5.48 1.55 13.32 3.37 22.19Z" fill="#000" style="mix-blend-mode:multiply"/><path d="M181.94 151.37v.01l.1.4.14.65A75.72 75.72 0 0 1 34.93 187.7l-.2-.74L18 117.13l-.06-.29A75.72 75.72 0 0 1 165.2 81.55l.05.21.02.08.05.2.05.2v.01l16.4 68.44.08.34.08.34Z" fill="#77311d" stroke="#000" stroke-width="4"/><g transform="translate(34 102.3)"></g></g><g transform="translate(170 183)"><path d="M68.42 31.57 67.4 17a8.06 8.06 0 0 0-9.74-7.3c-6.95 1.49-20.1 4.1-29.54 4.76-9.43.66-22.82-.1-29.9-.6a8.06 8.06 0 0 0-8.63 8.58L-9.4 37a8.06 8.06 0 0 0 9.73 7.3c6.95-1.48 20.1-4.1 29.54-4.76 9.44-.66 22.82.1 29.91.61a8.06 8.06 0 0 0 8.63-8.58Z" fill="#000000"/><path d="m-.25 17.97 1.6 6.07a6 6 0 0 0 6.22 4.46 6 6 0 0 0-5.54 5.28l-.74 6.23c7.28-1.52 19.34-3.83 28.3-4.46 8.98-.63 21.24-.02 28.66.48l-1.6-6.07a6 6 0 0 0-6.21-4.46 6 6 0 0 0 5.54-5.28l.73-6.24c-7.27 1.53-19.33 3.84-28.3 4.47-8.97.62-21.23.01-28.65-.48Z" fill="#fff"/></g><g transform="translate(110 102)"><path d="M27 26.5c6.17 2.5 21.1 3 31.5-15M94 4c5.17 5.33 18.1 12.8 28.5 0" stroke="#000000" stroke-width="4" stroke-linecap="round"/></g><g transform="translate(49 11)"><path d="M210.18 49.4c-1.27 6.05-4.6 11.32-9.43 15.9 9.4 34.06 9.6 53.87 4.38 57.65l-14.8-49.99C158.4 91.7 98.65 94.9 83.69 94.9c-1.55.17-3.02.4-4.43.67-14.65 9-2.6 52.12 11.75 70.43l-11 2c-5.14-24.97-17.41-22.92-26.61-21.38l-.32.05c2.2 13.63 6.72 27.74 10.45 39.32.95 2.99 1.86 5.8 2.66 8.4-.79.1-1.48.3-2.12.47-5.5 1.53-7.41 2.06-33.38-61.97-6.47-15.95-6.03-30.16-.97-42.62-4.78-4.8-14.37-7.14-19.71-7.78 10.44-6.12 20.58-4.87 25.54-3.1.5-.75 1.02-1.49 1.56-2.22-.97-4.41-7.96-9.46-12.11-11.82 8.55-4.3 18.6-2.03 22.98-.2C67.63 47.13 97.03 35.05 122 29 170.81 17.17 189.5.5 189.5.5c20.68 8.5 25.62 25.22 20.68 48.9Z" fill="#000000" stroke="#000" stroke-width="4"/></g><g transform="translate(142 119)"><g fill="#000000"><ellipse cx="16.12" cy="28.93" rx="9" ry="10" transform="rotate(-6.78 16.12 28.93)"/><ellipse cx="80.15" cy="18.92" rx="9" ry="10" transform="rotate(-6.28 80.15 18.92)"/></g><g transform="translate(-40 -8)"><g stroke="#6bd9e9" stroke-width="4"><path d="M34.5 42.5 0 49.12" stroke-linecap="round"/><path d="M35.47 18.53 74.2 13.1a6 6 0 0 1 6.77 5.1l5.57 39.62a6 6 0 0 1-5.1 6.78l-34.48 4.84a6 6 0 0 1-6.65-4.48l-9.81-39.01a6 6 0 0 1 4.98-7.4ZM145.92 3.22 107.2 8.66a6 6 0 0 0-5.1 6.78l5.56 39.6a6 6 0 0 0 6.78 5.11l34.47-4.84a6 6 0 0 0 5.16-6.14l-1.32-40.2a6 6 0 0 0-6.83-5.75ZM83.5 37.12l22-3.5"/></g></g></g><g transform="rotate(-8 1149.44 -1186.92)"><path d="M16.5 7c-.33 3.83 0 12.2 4 15 5 3.5-.5 12-10.5 10" stroke="#000" stroke-width="4"/></g><g transform="translate(84 154)"><path d="M30.5 6.18A23.78 23.78 0 0 0 23.08 5c-10.5 0-19 6.5-18 18.5 1.04 12.5 8.5 17 19 17A19.6 19.6 0 0 0 31 39.23" stroke="#000" stroke-width="8"/><path d="M31.5 39.04a19.38 19.38 0 0 1-7.42 1.46c-10.5 0-17.96-4.5-19-17-1-12 7.5-18.5 18-18.5 3.14 0 6.19.6 8.92 1.73l-.5 32.3Z" fill="#77311d"/><path d="M27.5 13.5c-4-1.83-12.8-2.8-16 8" stroke="#000" stroke-width="4"/><path d="M17 14c2.17 1.83 6.3 7.5 5.5 15.5" stroke="#000" stroke-width="4"/><g transform="translate(3 35)"></g></g><g transform="translate(53 272)"><g stroke="#000" stroke-width="4"><path d="M260.7 91H-12.64C3.67 61.66 26.86 42.98 64.44 34.4c16.02-3.65 34.67-5.47 56.56-5.47 9.46 0 16.81 1.44 23.8 3.35 2.58.7 5.18 1.5 7.84 2.3 4.4 1.34 8.97 2.72 13.91 3.86l.14.03.15.01c46.12 3.8 73.78 24.3 93.85 52.5Z" fill="#fc909f"/><path d="m52.93 36.58 9.15-19.6a1 1 0 0 1 1.25-.51c37.93 13.42 72.43 12.48 104.4 3.57a1 1 0 0 1 1.09.38l13.93 19.05a.98.98 0 0 1-.42 1.5c-33.6 13.2-96.67 10.95-128.91-3.07a.98.98 0 0 1-.49-1.32Z" fill="#fc909f"/><path opacity=".75" d="m52.93 36.58 9.15-19.6a1 1 0 0 1 1.25-.51c37.93 13.42 72.43 12.48 104.4 3.57a1 1 0 0 1 1.09.38l13.93 19.05a.98.98 0 0 1-.42 1.5c-33.6 13.2-96.67 10.95-128.91-3.07a.98.98 0 0 1-.49-1.32Z" fill="#fff"/></g></g></g></svg>